# xmcd
#
# Track frame offsets: 
#        150
#        23447
#        39131
#        61768
#        80757
#        98947
#        111778
#        132115
#        151361
#        174259
#        194186
#        212084
#        232296
#        251924
#        279808
#
# Disc length: 4036 seconds
#
# Revision: 0
# Processed by: cddbd v1.5PL3 Copyright (c) Steve Scherf et al.
# Submitted via: ExactAudioCopy v0.95a5
#
DISCID=c90fc20f
DTITLE=Cannibal Ox - The Cold Vain
DYEAR=2001
DGENRE=Hip-Hop
TTITLE0=Iron Galaxy
TTITLE1=Ox Out the Cage
TTITLE2=Atom (feat Alaska and Cryptic of Atoms)
TTITLE3=A B-Boys Alpha
TTITLE4=Raspberry Fields
TTITLE5=Straight off the D.I.C.
TTITLE6=Vein
TTITLE7=The F-Word
TTITLE8=Stress Rap
TTITLE9=Battle for Asgard (feat. L.I.F.E. Long and C-Rayz Walz)
TTITLE10=Real Earth
TTITLE11=Ridiculoid (feat. El-P)
TTITLE12=Painkillers
TTITLE13=Pigeon
TTITLE14=Scream Phoenix
EXTD=
EXTT0=
EXTT1=
EXTT2=
EXTT3=
EXTT4=
EXTT5=
EXTT6=
EXTT7=
EXTT8=
EXTT9=
EXTT10=
EXTT11=
EXTT12=
EXTT13=
EXTT14=
PLAYORDER=
